<?xml version="1.0" encoding="utf-8"?>
<!-- Generator: Adobe Illustrator 16.0.3, SVG Export Plug-In . SVG Version: 6.00 Build 0)  -->
<!DOCTYPE svg PUBLIC "-//W3C//DTD SVG 1.1//EN" "http://www.w3.org/Graphics/SVG/1.1/DTD/svg11.dtd">
<svg version="1.1" xmlns="http://www.w3.org/2000/svg" xmlns:xlink="http://www.w3.org/1999/xlink" x="0px" y="0px" width="300px"
	 height="300px" viewBox="0 0 300 300" enable-background="new 0 0 300 300" xml:space="preserve">
<g id="Layer_1" display="none">
	<g display="inline">
		<path fill="#FFFFFF" d="M153.855,166.877c-5.671-3.861-16.492-13.298-16.492-18.858c0-6.498,1.92-9.704,12.018-17.331
			c10.368-7.842,17.706-23.051,17.706-35.874c0-15.234-2.109-11.814-15.294-31.814h20.372l20.352-13c0,0-55.587,0-71.248,0
			c-28.096,0-57.687,23.915-57.687,47.76c0,24.378,19.154,44.503,47.732,44.503c1.983,0,3.917,0.176,5.804,0.04
			c-1.859,3.434-3.18,7.407-3.18,11.434c0,6.768,3.773,12.302,8.539,16.8c-3.61,0-7.077,0.137-10.87,0.137
			c-34.795,0-61.577,21.439-61.577,43.659c0,21.907,29.353,35.625,64.148,35.625c39.676,0,61.593-21.758,61.593-43.652
			C175.772,188.738,170.408,178.198,153.855,166.877z M120.388,136.519c-16.156-0.472-31.498-17.484-34.281-38.002
			c-2.78-20.501,8.037-36.195,24.184-35.733c16.136,0.462,31.481,16.928,34.261,37.429
			C147.341,120.73,136.521,136.98,120.388,136.519z M114.06,240.289c-24.044,0-41.417-14.727-41.417-32.435
			c0-17.338,21.534-31.784,45.593-31.523c5.619,0.058,10.843,0.938,15.589,2.428c13.06,8.769,22.422,13.75,25.06,23.744
			c0.501,2.037,0.774,4.121,0.774,6.243C159.659,226.474,147.872,240.289,114.06,240.289z M217,83v27h33v14h-33v26h-7v-26h-34v-14
			h34V83H217z"/>
	</g>
</g>
<g id="Layer_2">
	<path fill="#FFFFFF" stroke="#000000" stroke-miterlimit="10" d="M173.078,88.101h30.771V50h-30.771
		c-25.449,0-46.152,22.432-46.152,50v19.229H96.15v38.223h30.776V250h38.457v-92.549h38.467v-38.223h-38.467v-19.59
		C165.383,93.037,169.445,88.101,173.078,88.101z"/>
</g>
</svg>
