<?xml version="1.0" encoding="utf-8"?>
<!-- Generator: Adobe Illustrator 16.0.3, SVG Export Plug-In . SVG Version: 6.00 Build 0)  -->
<!DOCTYPE svg PUBLIC "-//W3C//DTD SVG 1.1//EN" "http://www.w3.org/Graphics/SVG/1.1/DTD/svg11.dtd">
<svg version="1.1" xmlns="http://www.w3.org/2000/svg" xmlns:xlink="http://www.w3.org/1999/xlink" x="0px" y="0px" width="300px"
	 height="300px" viewBox="0 0 300 300" enable-background="new 0 0 300 300" xml:space="preserve">
<g id="Layer_1" display="none">
	<g display="inline">
		<path fill="#FFFFFF" d="M153.855,166.877c-5.671-3.861-16.492-13.298-16.492-18.858c0-6.498,1.92-9.704,12.018-17.331
			c10.368-7.842,17.706-23.051,17.706-35.874c0-15.234-2.109-11.814-15.294-31.814h20.372l20.352-13c0,0-55.587,0-71.248,0
			c-28.096,0-57.687,23.915-57.687,47.76c0,24.378,19.154,44.503,47.732,44.503c1.983,0,3.917,0.176,5.804,0.04
			c-1.859,3.434-3.18,7.407-3.18,11.434c0,6.768,3.773,12.302,8.539,16.8c-3.61,0-7.077,0.137-10.87,0.137
			c-34.795,0-61.577,21.439-61.577,43.659c0,21.907,29.353,35.625,64.148,35.625c39.676,0,61.593-21.758,61.593-43.652
			C175.772,188.738,170.408,178.198,153.855,166.877z M120.388,136.519c-16.156-0.472-31.498-17.484-34.281-38.002
			c-2.78-20.501,8.037-36.195,24.184-35.733c16.136,0.462,31.481,16.928,34.261,37.429
			C147.341,120.73,136.521,136.98,120.388,136.519z M114.06,240.289c-24.044,0-41.417-14.727-41.417-32.435
			c0-17.338,21.534-31.784,45.593-31.523c5.619,0.058,10.843,0.938,15.589,2.428c13.06,8.769,22.422,13.75,25.06,23.744
			c0.501,2.037,0.774,4.121,0.774,6.243C159.659,226.474,147.872,240.289,114.06,240.289z M217,83v27h33v14h-33v26h-7v-26h-34v-14
			h34V83H217z"/>
	</g>
</g>
<g id="Layer_2" display="none">
	<path display="inline" fill="#FFFFFF" d="M173.078,88.101h30.771V50h-30.771c-25.449,0-46.152,22.432-46.152,50v19.229H96.15
		v38.223h30.776V250h38.457v-92.549h38.467v-38.223h-38.467v-19.59C165.383,93.037,169.445,88.101,173.078,88.101z"/>
</g>
<g id="Layer_3">
	<path fill="#FFFFFF" d="M250,87.976c-7.362,3.26-15.274,5.467-23.571,6.456c8.479-5.073,14.981-13.114,18.04-22.692
		c-7.931,4.689-16.703,8.114-26.063,9.945c-7.473-7.967-18.132-12.949-29.944-12.949c-22.656,0-41.026,18.37-41.026,41.025
		c0,3.224,0.348,6.346,1.062,9.341c-34.103-1.703-64.341-18.04-84.579-42.875c-3.535,6.081-5.549,13.132-5.549,20.641
		c0,14.23,7.234,26.795,18.242,34.157c-6.722-0.21-13.041-2.069-18.59-5.128c0,0.165,0,0.348,0,0.513
		c0,19.89,14.139,36.465,32.93,40.229c-3.443,0.962-7.069,1.447-10.824,1.447c-2.637,0-5.22-0.247-7.71-0.732
		c5.22,16.301,20.366,28.168,38.333,28.489c-14.048,11.007-31.74,17.563-50.971,17.563c-3.315,0-6.575-0.183-9.78-0.567
		c18.15,11.63,39.725,18.425,62.894,18.425c75.477,0,116.74-62.519,116.74-116.74c0-1.795-0.037-3.563-0.11-5.312
		C237.546,103.425,244.506,96.2,250,87.976z"/>
</g>
<g id="Layer_4" display="none">
	<g display="inline">
		<linearGradient id="SVGID_1_" gradientUnits="userSpaceOnUse" x1="149.9995" y1="150" x2="149.9995" y2="250.0005">
			<stop  offset="0.0056" style="stop-color:#ED2C2A"/>
			<stop  offset="0.5" style="stop-color:#EF3E3A"/>
			<stop  offset="0.9944" style="stop-color:#C02427"/>
		</linearGradient>
		<path fill="url(#SVGID_1_)" d="M218.75,150H81.25C64.063,150,50,164.063,50,181.25v35.412C50,235.01,65.002,250,83.337,250
			h133.325C234.998,250,250,235.01,250,216.662V181.25C250,164.063,235.938,150,218.75,150z"/>
		<g>
			
				<linearGradient id="SVGID_2_" gradientUnits="userSpaceOnUse" x1="-36.3589" y1="390.2891" x2="-36.3589" y2="322.7969" gradientTransform="matrix(1 0 0 -1 148.731 459.0391)">
				<stop  offset="0" style="stop-color:#525252"/>
				<stop  offset="0.9944" style="stop-color:#373534"/>
			</linearGradient>
			<polygon fill="url(#SVGID_2_)" stroke="#FFFFFF" stroke-width="0.25" stroke-miterlimit="10" points="93.164,68.75 104.7,68.75 
				112.134,95.728 112.854,95.728 119.934,68.75 131.58,68.75 118.25,108.24 118.25,136.243 106.799,136.243 106.799,109.503 			"/>
			
				<linearGradient id="SVGID_3_" gradientUnits="userSpaceOnUse" x1="-1.5698" y1="373.8467" x2="-1.5698" y2="321.5391" gradientTransform="matrix(1 0 0 -1 148.731 459.0391)">
				<stop  offset="0" style="stop-color:#525252"/>
				<stop  offset="0.9944" style="stop-color:#373534"/>
			</linearGradient>
			<path fill="url(#SVGID_3_)" stroke="#FFFFFF" stroke-width="0.25" stroke-miterlimit="10" d="M132.397,97.839
				c0-3.864,1.367-6.934,4.114-9.216c2.734-2.283,6.421-3.43,11.035-3.43c4.211,0,7.667,1.208,10.364,3.62
				c2.674,2.404,4.016,5.511,4.016,9.308v25.72c0,4.26-1.318,7.593-3.942,10.022c-2.649,2.423-6.274,3.638-10.901,3.638
				c-4.443,0-8.008-1.257-10.681-3.754c-2.661-2.502-4.004-5.871-4.004-10.101V97.839z M142.871,124.585
				c0,1.367,0.366,2.417,1.086,3.168c0.72,0.75,1.758,1.123,3.101,1.123c1.379,0,2.466-0.385,3.284-1.142
				c0.818-0.769,1.221-1.819,1.221-3.149V97.461c0-1.086-0.415-1.965-1.245-2.637s-1.917-1.001-3.259-1.001
				c-1.245,0-2.246,0.33-3.027,1.001c-0.769,0.671-1.16,1.55-1.16,2.637V124.585z"/>
			
				<linearGradient id="SVGID_4_" gradientUnits="userSpaceOnUse" x1="35.9609" y1="372.5898" x2="35.9609" y2="322.0762" gradientTransform="matrix(1 0 0 -1 148.731 459.0391)">
				<stop  offset="0" style="stop-color:#525252"/>
				<stop  offset="0.9944" style="stop-color:#373534"/>
			</linearGradient>
			<path fill="url(#SVGID_4_)" stroke="#FFFFFF" stroke-width="0.25" stroke-miterlimit="10" d="M199.207,86.45v49.792h-10.182v-5.5
				c-1.855,2.021-3.809,3.577-5.847,4.633c-2.026,1.056-3.991,1.587-5.896,1.587c-2.369,0-4.127-0.745-5.322-2.228
				c-1.185-1.483-1.783-3.705-1.783-6.671V86.45h10.156v38.171c0,1.184,0.232,2.033,0.66,2.557c0.414,0.531,1.11,0.8,2.063,0.8
				c0.744,0,1.697-0.354,2.844-1.05c1.136-0.702,2.186-1.593,3.125-2.686V86.45H199.207z"/>
		</g>
		<g>
			<path fill="#FFFFFF" stroke="#000000" stroke-width="0.25" stroke-miterlimit="10" d="M115.771,163.458h-31.25v8.899h10.535
				v52.368h10.181v-52.368h10.535V163.458z"/>
			<path fill="#FFFFFF" stroke="#000000" stroke-width="0.25" stroke-miterlimit="10" d="M136.511,213.855
				c-0.854,0.977-1.782,1.788-2.808,2.416c-1.013,0.642-1.868,0.959-2.515,0.959c-0.854,0-1.465-0.238-1.855-0.727
				c-0.366-0.47-0.562-1.245-0.562-2.313v-34.674h-9.033v37.799c0,2.698,0.537,4.7,1.587,6.055c1.062,1.349,2.625,2.015,4.724,2.015
				c1.697,0,3.442-0.471,5.237-1.44c1.819-0.958,3.54-2.344,5.225-4.188v4.969h9.033v-45.209h-9.033V213.855z"/>
			<path fill="#FFFFFF" stroke="#000000" stroke-width="0.25" stroke-miterlimit="10" d="M176.05,181.854
				c-1.501-1.917-3.687-2.881-6.543-2.881c-1.403,0-2.796,0.354-4.175,1.067c-1.355,0.709-2.648,1.776-3.869,3.138v-19.721h-9.131
				v61.268h9.131v-3.467c1.184,1.386,2.478,2.404,3.869,3.058c1.367,0.665,2.941,0.982,4.725,0.982c2.673,0,4.724-0.848,6.14-2.551
				c1.416-1.709,2.124-4.169,2.124-7.367v-25.086C178.32,186.597,177.563,183.783,176.05,181.854z M169.006,214.142
				c0,1.453-0.268,2.479-0.781,3.113c-0.524,0.641-1.33,0.958-2.441,0.958c-0.756,0-1.477-0.165-2.172-0.488
				c-0.696-0.317-1.416-0.86-2.148-1.593V187.97c0.622-0.628,1.232-1.093,1.867-1.379c0.623-0.306,1.27-0.439,1.916-0.439
				c1.209,0,2.148,0.384,2.809,1.172c0.646,0.787,0.951,1.946,0.951,3.479V214.142z"/>
			<path fill="#FFFFFF" stroke="#000000" stroke-width="0.25" stroke-miterlimit="10" d="M209.644,203.198v-11.523
				c0-4.278-1.099-7.563-3.32-9.845c-2.222-2.289-5.407-3.437-9.546-3.437c-4.041,0-7.324,1.233-9.888,3.698
				c-2.552,2.473-3.845,5.677-3.845,9.583v20.307c0,4.352,1.184,7.775,3.503,10.254c2.319,2.483,5.505,3.723,9.558,3.723
				c4.505,0,7.887-1.159,10.133-3.497c2.282-2.35,3.405-5.848,3.405-10.479v-2.319h-9.29v2.063c0,2.655-0.316,4.37-0.902,5.146
				c-0.599,0.787-1.637,1.178-3.138,1.178c-1.44,0-2.466-0.451-3.063-1.373c-0.599-0.922-0.879-2.569-0.879-4.95v-8.526H209.644z
				 M192.371,191.602c0-1.886,0.293-3.253,0.928-4.053c0.635-0.836,1.66-1.239,3.1-1.239c1.367,0,2.393,0.403,3.004,1.239
				c0.622,0.8,0.951,2.167,0.951,4.053v4.565h-7.982V191.602z"/>
		</g>
	</g>
</g>
</svg>
